<svg id="Capa_1" enable-background="new 0 0 512 512" height="20" viewBox="0 0 512 512" width="20" xmlns="http://www.w3.org/2000/svg"><g><g><path d="m297.272 159.558h-82.543l-58.367 58.172v82.269l58.367 58.172h82.543l58.366-58.172v-82.269z" fill="#a4fcc4"/></g><g><path d="m444.393 358.754-17.34-10.758 10.179-10.145c1.882-1.876 2.94-4.425 2.94-7.083v-143.808c0-2.658-1.059-5.207-2.94-7.083l-16.5-16.445 23.677-14.75c4.336-2.701 5.939-8.236 3.718-12.836l-46.807-96.931c-1.898-3.932-6.126-6.177-10.45-5.546-4.321.631-7.733 3.994-8.428 8.305l-8.976 55.722-10.45 8.513-27.812-27.719c-1.875-1.868-4.413-2.917-7.06-2.917h-4.534v-41.163c0-4.031-2.421-7.668-6.14-9.225l-57.61-24.11c-2.469-1.034-5.252-1.034-7.721 0l-57.61 24.11c-3.719 1.556-6.14 5.193-6.14 9.225v41.163h-4.534c-2.646 0-5.185 1.049-7.06 2.917l-28.6 28.505-9.662-7.867-8.976-55.721c-.694-4.311-4.106-7.673-8.428-8.305-4.316-.631-8.551 1.614-10.45 5.546l-46.807 96.931c-2.222 4.601-.618 10.137 3.719 12.837l22.795 14.194-15.619 15.567c-1.882 1.876-2.94 4.425-2.94 7.083v143.808c0 2.658 1.059 5.207 2.94 7.083l11.061 11.024-18.225 11.314c-4.345 2.698-5.955 8.239-3.73 12.845l46.807 96.931c1.686 3.491 5.208 5.652 9.001 5.652.479 0 .965-.035 1.449-.105 4.321-.631 7.733-3.994 8.428-8.305l8.974-55.711 5.581-4.529 32.682 32.574c1.875 1.868 4.413 2.917 7.06 2.917h17.953l46.016 65.304c1.874 2.658 4.923 4.24 8.175 4.24s6.301-1.582 8.175-4.24l46.016-65.304h17.953c2.646 0 5.185-1.049 7.06-2.917l33.472-33.361 4.791 3.885 8.974 55.709c.694 4.311 4.106 7.673 8.428 8.305.485.071.969.105 1.449.105 3.792 0 7.315-2.162 9.001-5.652l46.807-96.931c2.226-4.608.615-10.15-3.732-12.847zm-112.495 55.843-16.356-32.352c-2.491-4.93-8.51-6.905-13.436-4.413-4.929 2.492-6.904 8.507-4.412 13.436l15.768 31.188h-115.57l15.768-31.188c2.492-4.929.517-10.944-4.412-13.436-4.926-2.491-10.944-.517-13.436 4.413l-16.14 31.924-87.844-87.552v-60.617h25.013c5.522 0 10-4.477 10-10s-4.478-10-10-10h-25.013v-54.888l88.894-88.597 15.091 29.848c1.76 3.482 5.279 5.49 8.932 5.49 1.518 0 3.058-.347 4.504-1.078 4.929-2.492 6.904-8.507 4.412-13.436l-14.19-28.067h112.413l-14.19 28.066c-2.492 4.929-.517 10.944 4.412 13.437 1.446.731 2.986 1.078 4.504 1.078 3.652 0 7.172-2.008 8.932-5.49l15.308-30.277 89.323 89.025v54.889h-25.013c-5.522 0-10 4.477-10 10s4.478 10 10 10h25.013v60.616zm57.151-304.1c1.901-1.548 3.167-3.742 3.558-6.163l4.525-28.097 29.079 60.218-20.028 12.477-28.926-28.83zm-180.659-69.732 47.61-19.924 47.61 19.925v34.507h-95.22zm-122.6 97.122 29.078-60.217 4.525 28.098c.391 2.422 1.657 4.615 3.559 6.164l11.001 8.958-29.016 28.92zm37.175 260.484c-1.908 1.549-3.18 3.747-3.571 6.174l-4.525 28.098-29.073-60.206 14.588-9.056 29.486 29.387zm133.035 86.268-29.725-42.183h59.449zm141.132-53.43-4.525-28.097c-.392-2.429-1.664-4.628-3.575-6.177l-6.109-4.954 29.576-29.477 13.706 8.503z" fill="#020288"/></g></g></svg>