<svg id="Capa_1" enable-background="new 0 0 512 512" height="20" viewBox="0 0 512 512" width="20" xmlns="http://www.w3.org/2000/svg"><g><g><g><path d="m398.29 226.894v-29.848l-21.106-21.105 4.137-45.273-45.275 4.137-21.107-21.105h-29.848l-29.091-34.939v354.438l29.091-34.94h29.848l21.107-21.105 45.275 4.137-4.137-45.273 21.106-21.105v-29.847l34.939-29.086z" fill="#ffbdbc"/></g></g><g><path d="m508.181 248.113-25.011-20.821v-191.026c0-5.523-4.477-10-10-10h-190.609s-18.995-22.812-19.023-22.843c-.001-.001-.009-.01-.024-.026-4.07-4.315-10.938-4.308-15.011.004-.145.153-.225.239-.226.24l-18.837 22.625h-190.61c-5.523 0-10 4.477-10 10v191.026l-25.009 20.82c-1.548 1.288-2.778 2.956-3.369 4.881-1.223 3.981.109 8.14 3.151 10.672l25.228 21.002v191.026c0 5.523 4.477 10 10 10h190.61s18.852 22.643 18.86 22.652l.042.048c4.082 4.599 11.278 4.59 15.341-.025.002-.002.003-.003.003-.003l18.876-22.671h190.607c5.523 0 10-4.477 10-10v-191.026l25.229-21.002c3.041-2.532 4.372-6.69 3.151-10.671-.591-1.926-1.821-3.593-3.369-4.882zm-45.011-201.847v164.376l-10.88-9.057v-22.765c0-2.652-1.054-5.196-2.929-7.071l-16.099-16.097 6.644-72.7c.271-2.957-.787-5.881-2.887-7.981s-5.019-3.156-7.981-2.887l-72.705 6.644-16.098-16.098c-1.876-1.875-4.419-2.929-7.071-2.929h-22.767l-11.185-13.434h163.958zm-249.196 389.595c-1.9-2.282-4.716-3.602-7.685-3.602h-23.311l-16.483-16.482c-2.099-2.099-5.016-3.155-7.981-2.887l-65.41 5.977 5.978-65.406c.271-2.957-.788-5.882-2.888-7.981l-16.484-16.483v-23.31c0-2.97-1.32-5.786-3.602-7.686l-38.466-32.021h208.358v208.347zm-137.866-221.904c2.282-1.9 3.602-4.716 3.602-7.686v-23.31l16.483-16.482c2.1-2.1 3.158-5.024 2.888-7.981l-5.978-65.406 65.41 5.977c2.956.271 5.881-.787 7.981-2.887l16.484-16.482h23.311c2.969 0 5.785-1.32 7.685-3.602l32.026-38.465v208.347h-208.358zm-27.278-167.691h163.958l-11.185 13.434h-22.766c-2.652 0-5.195 1.054-7.071 2.929l-16.099 16.098-72.705-6.644c-2.954-.272-5.882.788-7.981 2.887-2.1 2.1-3.157 5.024-2.887 7.981l6.644 72.7-16.098 16.098c-1.875 1.875-2.929 4.419-2.929 7.071v22.765l-10.881 9.058zm0 419.427v-164.376l10.881 9.058v22.765c0 2.652 1.054 5.196 2.929 7.071l16.098 16.097-6.644 72.7c-.27 2.957.788 5.881 2.887 7.981 2.1 2.1 5.027 3.159 7.981 2.887l72.705-6.644 16.099 16.098c1.875 1.875 4.419 2.929 7.071 2.929h22.766l11.185 13.434zm414.34 0h-163.957l11.185-13.434h22.767c2.652 0 5.195-1.054 7.071-2.929l16.098-16.098 72.705 6.644c2.962.272 5.882-.788 7.981-2.887 2.1-2.1 3.157-5.024 2.887-7.981l-6.644-72.7 16.099-16.097c1.875-1.875 2.929-4.419 2.929-7.071v-22.765l10.88-9.057v164.375zm-27.278-167.691c-2.282 1.9-3.602 4.716-3.602 7.686v23.31l-16.483 16.482c-2.1 2.1-3.157 5.024-2.887 7.981l5.977 65.406-65.41-5.977c-2.959-.271-5.881.788-7.981 2.887l-16.482 16.482h-23.312c-2.97 0-5.785 1.32-7.685 3.602l-32.027 38.465v-436.693l32.026 38.466c1.899 2.282 4.715 3.602 7.685 3.602h23.312l16.482 16.482c2.101 2.1 5.023 3.157 7.981 2.887l65.41-5.977-5.977 65.406c-.271 2.958.787 5.882 2.887 7.981l16.483 16.482v23.31c0 2.97 1.319 5.786 3.602 7.686l50.479 42.022z" fill="#020288"/></g></g></svg>