<svg id="Capa_1" enable-background="new 0 0 512 512" height="20" viewBox="0 0 512 512" width="20" xmlns="http://www.w3.org/2000/svg"><g><g><g><path d="m459.293 74.377 42.707 119.591-16.058 85.878-166.126-66.251z" fill="#ffbdbc"/></g><path d="m52.706 74.377-42.706 119.591 16.058 85.878 166.126-66.251z" fill="#ffbdbc"/></g><g><path d="m511.417 190.605-42.706-119.591c-.935-2.618-2.917-4.728-5.471-5.825l-90.068-38.689c-3.612-1.551-7.797-.843-10.698 1.812l-106.464 97.431-106.485-97.432c-2.9-2.654-7.086-3.362-10.697-1.81l-90.068 38.688c-2.554 1.097-4.536 3.207-5.471 5.825l-42.707 119.591c-.595 1.667-.737 3.461-.412 5.201l16.058 85.877c.42 2.246 1.596 4.28 3.333 5.764l229.846 196.446c.034.03.083.071.145.122 3.763 3.059 9.192 3.07 12.935-.014.044-.036.08-.067.107-.09l229.845-196.463c1.736-1.484 2.912-3.518 3.332-5.764l16.058-85.877c.326-1.741.184-3.535-.412-5.202zm-255.406 83.43c5.523 0 10-4.477 10-10v-120.333l85.015-77.802-95.016 364.935-95.035-364.94 85.036 77.807v120.332c0 5.524 4.477 10.001 10 10.001zm-235.685-79.249 40.332-112.941 75.372-32.375 104.246 400.31-205.037-175.243zm456.435 79.752-205.017 175.24 104.226-400.309 75.371 32.376 40.332 112.941z" fill="#020288"/></g></g></svg>