<svg id="Capa_1" enable-background="new 0 0 512 512" height="20" viewBox="0 0 512 512" width="20" xmlns="http://www.w3.org/2000/svg"><g><g fill="#fff59b"><path d="m502 304.141-196.864-45.277-49.136-232.321z"/><path d="m10 304.141 196.864-45.277 49.136-232.321z"/></g><g><path d="m512 304.126c0-.081-.001-.162-.003-.243v-.001c-.002-.074-.005-.149-.008-.223-.001-.03-.003-.06-.005-.09-.002-.038-.005-.077-.007-.115-.131-1.934-.812-3.717-1.888-5.194-.014-.019-.027-.037-.041-.056-.024-.032-.048-.064-.072-.096-.022-.029-.044-.058-.067-.087-.019-.025-.039-.05-.058-.075-.042-.054-.085-.107-.129-.161-.008-.01-.016-.019-.024-.029-.039-.048-.079-.095-.12-.142-.012-.014-.024-.028-.037-.042-.018-.021-.037-.043-.055-.064l-246-277.598c-1.898-2.142-4.623-3.368-7.484-3.368-2.862 0-5.586 1.226-7.484 3.368l-246 277.598c-.001.002-.079.094-.205.246-1.494 1.793-2.313 4.054-2.313 6.387v181.317c0 5.523 4.477 10 10 10h492c5.523 0 10-4.477 10-10v-181.317c0-.005 0-.01 0-.015zm-460.116 10.015h440.116v151.118zm204.116-272.521 223.776 252.521h-447.553zm-236 282.719 440.117 151.118h-440.117z" fill="#020288"/></g></g></svg>